<mxfile host="app.diagrams.net" modified="2023-11-01T18:11:21.288Z" agent="Mozilla/5.0 (Windows NT 10.0; Win64; x64) AppleWebKit/537.36 (KHTML, like Gecko) Chrome/118.0.0.0 Safari/537.36" etag="Fmb9q6KrTkQN0nq1IvaQ" version="22.0.8" type="github">
  <diagram name="Page-1" id="0HX2dnRqEhf8P0ovfNeo">
    <mxGraphModel dx="1912" dy="2153" grid="1" gridSize="10" guides="1" tooltips="1" connect="1" arrows="1" fold="1" page="1" pageScale="1" pageWidth="850" pageHeight="1100" math="0" shadow="0">
      <root>
        <mxCell id="0" />
        <mxCell id="1" parent="0" />
        <mxCell id="rmH-b_gDkZlsQJ7KyMr7-101" style="edgeStyle=orthogonalEdgeStyle;rounded=0;orthogonalLoop=1;jettySize=auto;html=1;entryX=0;entryY=0.5;entryDx=0;entryDy=0;" parent="1" source="rmH-b_gDkZlsQJ7KyMr7-5" target="rmH-b_gDkZlsQJ7KyMr7-80" edge="1">
          <mxGeometry relative="1" as="geometry" />
        </mxCell>
        <mxCell id="rmH-b_gDkZlsQJ7KyMr7-5" value="Cliente" style="swimlane;fontStyle=1;align=center;verticalAlign=top;childLayout=stackLayout;horizontal=1;startSize=30;horizontalStack=0;resizeParent=1;resizeParentMax=0;resizeLast=0;collapsible=1;marginBottom=0;whiteSpace=wrap;html=1;" parent="1" vertex="1">
          <mxGeometry x="425" y="990" width="220" height="174" as="geometry" />
        </mxCell>
        <mxCell id="rmH-b_gDkZlsQJ7KyMr7-6" value="- id: int&lt;br style=&quot;border-color: var(--border-color);&quot;&gt;- cpf: String&lt;br style=&quot;border-color: var(--border-color);&quot;&gt;- nome: String&lt;br&gt;- endereco: String&lt;br style=&quot;border-color: var(--border-color);&quot;&gt;- telefone: String&lt;br style=&quot;border-color: var(--border-color);&quot;&gt;- email: String&lt;br style=&quot;border-color: var(--border-color);&quot;&gt;- senha: String" style="text;strokeColor=none;fillColor=none;align=left;verticalAlign=top;spacingLeft=4;spacingRight=4;overflow=hidden;rotatable=0;points=[[0,0.5],[1,0.5]];portConstraint=eastwest;whiteSpace=wrap;html=1;" parent="rmH-b_gDkZlsQJ7KyMr7-5" vertex="1">
          <mxGeometry y="30" width="220" height="110" as="geometry" />
        </mxCell>
        <mxCell id="rmH-b_gDkZlsQJ7KyMr7-7" value="" style="line;strokeWidth=1;fillColor=none;align=left;verticalAlign=middle;spacingTop=-1;spacingLeft=3;spacingRight=3;rotatable=0;labelPosition=right;points=[];portConstraint=eastwest;strokeColor=inherit;" parent="rmH-b_gDkZlsQJ7KyMr7-5" vertex="1">
          <mxGeometry y="140" width="220" height="8" as="geometry" />
        </mxCell>
        <mxCell id="rmH-b_gDkZlsQJ7KyMr7-8" value="+&amp;nbsp;Cliente(data): void" style="text;strokeColor=none;fillColor=none;align=left;verticalAlign=top;spacingLeft=4;spacingRight=4;overflow=hidden;rotatable=0;points=[[0,0.5],[1,0.5]];portConstraint=eastwest;whiteSpace=wrap;html=1;" parent="rmH-b_gDkZlsQJ7KyMr7-5" vertex="1">
          <mxGeometry y="148" width="220" height="26" as="geometry" />
        </mxCell>
        <mxCell id="rmH-b_gDkZlsQJ7KyMr7-11" value="Funcionario" style="swimlane;fontStyle=1;align=center;verticalAlign=top;childLayout=stackLayout;horizontal=1;startSize=30;horizontalStack=0;resizeParent=1;resizeParentMax=0;resizeLast=0;collapsible=1;marginBottom=0;whiteSpace=wrap;html=1;" parent="1" vertex="1">
          <mxGeometry x="420" y="-90" width="220" height="194" as="geometry" />
        </mxCell>
        <mxCell id="rmH-b_gDkZlsQJ7KyMr7-12" value="- id: int&lt;br&gt;- cpf: String&lt;br&gt;- contrato: Contrato&lt;br style=&quot;border-color: var(--border-color);&quot;&gt;- nome: String&lt;br style=&quot;border-color: var(--border-color);&quot;&gt;- telefone: String&lt;br&gt;- matricula: String&lt;br style=&quot;border-color: var(--border-color);&quot;&gt;- email: String&lt;br style=&quot;border-color: var(--border-color);&quot;&gt;- senha: String" style="text;strokeColor=none;fillColor=none;align=left;verticalAlign=top;spacingLeft=4;spacingRight=4;overflow=hidden;rotatable=0;points=[[0,0.5],[1,0.5]];portConstraint=eastwest;whiteSpace=wrap;html=1;" parent="rmH-b_gDkZlsQJ7KyMr7-11" vertex="1">
          <mxGeometry y="30" width="220" height="130" as="geometry" />
        </mxCell>
        <mxCell id="rmH-b_gDkZlsQJ7KyMr7-13" value="" style="line;strokeWidth=1;fillColor=none;align=left;verticalAlign=middle;spacingTop=-1;spacingLeft=3;spacingRight=3;rotatable=0;labelPosition=right;points=[];portConstraint=eastwest;strokeColor=inherit;" parent="rmH-b_gDkZlsQJ7KyMr7-11" vertex="1">
          <mxGeometry y="160" width="220" height="8" as="geometry" />
        </mxCell>
        <mxCell id="rmH-b_gDkZlsQJ7KyMr7-14" value="+ Funcionario(data): void" style="text;strokeColor=none;fillColor=none;align=left;verticalAlign=top;spacingLeft=4;spacingRight=4;overflow=hidden;rotatable=0;points=[[0,0.5],[1,0.5]];portConstraint=eastwest;whiteSpace=wrap;html=1;" parent="rmH-b_gDkZlsQJ7KyMr7-11" vertex="1">
          <mxGeometry y="168" width="220" height="26" as="geometry" />
        </mxCell>
        <mxCell id="rmH-b_gDkZlsQJ7KyMr7-46" style="edgeStyle=orthogonalEdgeStyle;rounded=0;orthogonalLoop=1;jettySize=auto;html=1;" parent="1" source="rmH-b_gDkZlsQJ7KyMr7-19" target="rmH-b_gDkZlsQJ7KyMr7-27" edge="1">
          <mxGeometry relative="1" as="geometry" />
        </mxCell>
        <mxCell id="rmH-b_gDkZlsQJ7KyMr7-19" value="Produto" style="swimlane;fontStyle=1;align=center;verticalAlign=top;childLayout=stackLayout;horizontal=1;startSize=30;horizontalStack=0;resizeParent=1;resizeParentMax=0;resizeLast=0;collapsible=1;marginBottom=0;whiteSpace=wrap;html=1;" parent="1" vertex="1">
          <mxGeometry x="1430" y="430" width="290" height="164" as="geometry" />
        </mxCell>
        <mxCell id="rmH-b_gDkZlsQJ7KyMr7-20" value="- id: int&lt;br&gt;- titulo: String&lt;br&gt;- descricao: String&lt;br&gt;- preco: float&lt;br&gt;- estoque: int&lt;br&gt;- categoria:&amp;nbsp;Categoria" style="text;strokeColor=none;fillColor=none;align=left;verticalAlign=top;spacingLeft=4;spacingRight=4;overflow=hidden;rotatable=0;points=[[0,0.5],[1,0.5]];portConstraint=eastwest;whiteSpace=wrap;html=1;" parent="rmH-b_gDkZlsQJ7KyMr7-19" vertex="1">
          <mxGeometry y="30" width="290" height="100" as="geometry" />
        </mxCell>
        <mxCell id="rmH-b_gDkZlsQJ7KyMr7-21" value="" style="line;strokeWidth=1;fillColor=none;align=left;verticalAlign=middle;spacingTop=-1;spacingLeft=3;spacingRight=3;rotatable=0;labelPosition=right;points=[];portConstraint=eastwest;strokeColor=inherit;" parent="rmH-b_gDkZlsQJ7KyMr7-19" vertex="1">
          <mxGeometry y="130" width="290" height="8" as="geometry" />
        </mxCell>
        <mxCell id="rmH-b_gDkZlsQJ7KyMr7-22" value="+ Produto(data): void" style="text;strokeColor=none;fillColor=none;align=left;verticalAlign=top;spacingLeft=4;spacingRight=4;overflow=hidden;rotatable=0;points=[[0,0.5],[1,0.5]];portConstraint=eastwest;whiteSpace=wrap;html=1;" parent="rmH-b_gDkZlsQJ7KyMr7-19" vertex="1">
          <mxGeometry y="138" width="290" height="26" as="geometry" />
        </mxCell>
        <mxCell id="ruQxINrf4VnfBVx8ZJQu-18" style="edgeStyle=orthogonalEdgeStyle;rounded=0;orthogonalLoop=1;jettySize=auto;html=1;" edge="1" parent="1" source="rmH-b_gDkZlsQJ7KyMr7-27" target="rmH-b_gDkZlsQJ7KyMr7-47">
          <mxGeometry relative="1" as="geometry" />
        </mxCell>
        <mxCell id="rmH-b_gDkZlsQJ7KyMr7-27" value="ItemProduto" style="swimlane;fontStyle=1;align=center;verticalAlign=top;childLayout=stackLayout;horizontal=1;startSize=30;horizontalStack=0;resizeParent=1;resizeParentMax=0;resizeLast=0;collapsible=1;marginBottom=0;whiteSpace=wrap;html=1;" parent="1" vertex="1">
          <mxGeometry x="1430" y="710" width="290" height="154" as="geometry" />
        </mxCell>
        <mxCell id="rmH-b_gDkZlsQJ7KyMr7-28" value="- id: int&lt;br style=&quot;border-color: var(--border-color);&quot;&gt;- produto:&amp;nbsp;Produto&lt;br style=&quot;border-color: var(--border-color);&quot;&gt;- precoUnit: int&lt;br style=&quot;border-color: var(--border-color);&quot;&gt;- quantidade: int&lt;br style=&quot;border-color: var(--border-color);&quot;&gt;- subTotal: float" style="text;strokeColor=none;fillColor=none;align=left;verticalAlign=top;spacingLeft=4;spacingRight=4;overflow=hidden;rotatable=0;points=[[0,0.5],[1,0.5]];portConstraint=eastwest;whiteSpace=wrap;html=1;" parent="rmH-b_gDkZlsQJ7KyMr7-27" vertex="1">
          <mxGeometry y="30" width="290" height="90" as="geometry" />
        </mxCell>
        <mxCell id="rmH-b_gDkZlsQJ7KyMr7-29" value="" style="line;strokeWidth=1;fillColor=none;align=left;verticalAlign=middle;spacingTop=-1;spacingLeft=3;spacingRight=3;rotatable=0;labelPosition=right;points=[];portConstraint=eastwest;strokeColor=inherit;" parent="rmH-b_gDkZlsQJ7KyMr7-27" vertex="1">
          <mxGeometry y="120" width="290" height="8" as="geometry" />
        </mxCell>
        <mxCell id="rmH-b_gDkZlsQJ7KyMr7-30" value="+ ItemProduto(data): void" style="text;strokeColor=none;fillColor=none;align=left;verticalAlign=top;spacingLeft=4;spacingRight=4;overflow=hidden;rotatable=0;points=[[0,0.5],[1,0.5]];portConstraint=eastwest;whiteSpace=wrap;html=1;" parent="rmH-b_gDkZlsQJ7KyMr7-27" vertex="1">
          <mxGeometry y="128" width="290" height="26" as="geometry" />
        </mxCell>
        <mxCell id="rmH-b_gDkZlsQJ7KyMr7-74" style="edgeStyle=orthogonalEdgeStyle;rounded=0;orthogonalLoop=1;jettySize=auto;html=1;entryX=0.5;entryY=0;entryDx=0;entryDy=0;" parent="1" source="rmH-b_gDkZlsQJ7KyMr7-47" target="rmH-b_gDkZlsQJ7KyMr7-70" edge="1">
          <mxGeometry relative="1" as="geometry" />
        </mxCell>
        <mxCell id="rmH-b_gDkZlsQJ7KyMr7-47" value="CarrinhoDeCompras" style="swimlane;fontStyle=1;align=center;verticalAlign=top;childLayout=stackLayout;horizontal=1;startSize=30;horizontalStack=0;resizeParent=1;resizeParentMax=0;resizeLast=0;collapsible=1;marginBottom=0;whiteSpace=wrap;html=1;" parent="1" vertex="1">
          <mxGeometry x="1430" y="1080" width="290" height="134" as="geometry" />
        </mxCell>
        <mxCell id="rmH-b_gDkZlsQJ7KyMr7-48" value="- id: int&lt;br style=&quot;border-color: var(--border-color);&quot;&gt;- listaCompras : List&amp;lt;ItemProduto&amp;gt;&lt;br&gt;- listaServicos: List&amp;lt;ItemServico&amp;gt;&lt;br style=&quot;border-color: var(--border-color);&quot;&gt;- precoTotal: float" style="text;strokeColor=none;fillColor=none;align=left;verticalAlign=top;spacingLeft=4;spacingRight=4;overflow=hidden;rotatable=0;points=[[0,0.5],[1,0.5]];portConstraint=eastwest;whiteSpace=wrap;html=1;" parent="rmH-b_gDkZlsQJ7KyMr7-47" vertex="1">
          <mxGeometry y="30" width="290" height="70" as="geometry" />
        </mxCell>
        <mxCell id="rmH-b_gDkZlsQJ7KyMr7-49" value="" style="line;strokeWidth=1;fillColor=none;align=left;verticalAlign=middle;spacingTop=-1;spacingLeft=3;spacingRight=3;rotatable=0;labelPosition=right;points=[];portConstraint=eastwest;strokeColor=inherit;" parent="rmH-b_gDkZlsQJ7KyMr7-47" vertex="1">
          <mxGeometry y="100" width="290" height="8" as="geometry" />
        </mxCell>
        <mxCell id="rmH-b_gDkZlsQJ7KyMr7-50" value="+ CarrinhoDeCompras(data): void" style="text;strokeColor=none;fillColor=none;align=left;verticalAlign=top;spacingLeft=4;spacingRight=4;overflow=hidden;rotatable=0;points=[[0,0.5],[1,0.5]];portConstraint=eastwest;whiteSpace=wrap;html=1;" parent="rmH-b_gDkZlsQJ7KyMr7-47" vertex="1">
          <mxGeometry y="108" width="290" height="26" as="geometry" />
        </mxCell>
        <mxCell id="rmH-b_gDkZlsQJ7KyMr7-70" value="Compra" style="swimlane;fontStyle=1;align=center;verticalAlign=top;childLayout=stackLayout;horizontal=1;startSize=30;horizontalStack=0;resizeParent=1;resizeParentMax=0;resizeLast=0;collapsible=1;marginBottom=0;whiteSpace=wrap;html=1;" parent="1" vertex="1">
          <mxGeometry x="1430" y="1320" width="290" height="144" as="geometry" />
        </mxCell>
        <mxCell id="rmH-b_gDkZlsQJ7KyMr7-71" value="- id: int&lt;br style=&quot;border-color: var(--border-color);&quot;&gt;- data: Datetime&lt;br style=&quot;border-color: var(--border-color);&quot;&gt;- carrinho:&amp;nbsp;CarrinhoDeCompras&lt;br style=&quot;border-color: var(--border-color);&quot;&gt;- valorTotal: float&lt;br&gt;- status: StatusCompra" style="text;strokeColor=none;fillColor=none;align=left;verticalAlign=top;spacingLeft=4;spacingRight=4;overflow=hidden;rotatable=0;points=[[0,0.5],[1,0.5]];portConstraint=eastwest;whiteSpace=wrap;html=1;" parent="rmH-b_gDkZlsQJ7KyMr7-70" vertex="1">
          <mxGeometry y="30" width="290" height="80" as="geometry" />
        </mxCell>
        <mxCell id="rmH-b_gDkZlsQJ7KyMr7-72" value="" style="line;strokeWidth=1;fillColor=none;align=left;verticalAlign=middle;spacingTop=-1;spacingLeft=3;spacingRight=3;rotatable=0;labelPosition=right;points=[];portConstraint=eastwest;strokeColor=inherit;" parent="rmH-b_gDkZlsQJ7KyMr7-70" vertex="1">
          <mxGeometry y="110" width="290" height="8" as="geometry" />
        </mxCell>
        <mxCell id="rmH-b_gDkZlsQJ7KyMr7-73" value="+&amp;nbsp;Compra(data): void" style="text;strokeColor=none;fillColor=none;align=left;verticalAlign=top;spacingLeft=4;spacingRight=4;overflow=hidden;rotatable=0;points=[[0,0.5],[1,0.5]];portConstraint=eastwest;whiteSpace=wrap;html=1;" parent="rmH-b_gDkZlsQJ7KyMr7-70" vertex="1">
          <mxGeometry y="118" width="290" height="26" as="geometry" />
        </mxCell>
        <mxCell id="rmH-b_gDkZlsQJ7KyMr7-79" value="ClienteCompra" style="swimlane;fontStyle=1;align=center;verticalAlign=top;childLayout=stackLayout;horizontal=1;startSize=30;horizontalStack=0;resizeParent=1;resizeParentMax=0;resizeLast=0;collapsible=1;marginBottom=0;whiteSpace=wrap;html=1;" parent="1" vertex="1">
          <mxGeometry x="1030" y="1320" width="290" height="144" as="geometry" />
        </mxCell>
        <mxCell id="rmH-b_gDkZlsQJ7KyMr7-80" value="- id: int&lt;br style=&quot;border-color: var(--border-color);&quot;&gt;- cliente: Cliente&lt;br style=&quot;border-color: var(--border-color);&quot;&gt;- compra:&amp;nbsp;Compra&lt;br style=&quot;border-color: var(--border-color);&quot;&gt;- enderecoEntrega: Cliente.getEndereco()&lt;br&gt;- metodoPagamento: metodoPagamento" style="text;strokeColor=none;fillColor=none;align=left;verticalAlign=top;spacingLeft=4;spacingRight=4;overflow=hidden;rotatable=0;points=[[0,0.5],[1,0.5]];portConstraint=eastwest;whiteSpace=wrap;html=1;" parent="rmH-b_gDkZlsQJ7KyMr7-79" vertex="1">
          <mxGeometry y="30" width="290" height="80" as="geometry" />
        </mxCell>
        <mxCell id="rmH-b_gDkZlsQJ7KyMr7-81" value="" style="line;strokeWidth=1;fillColor=none;align=left;verticalAlign=middle;spacingTop=-1;spacingLeft=3;spacingRight=3;rotatable=0;labelPosition=right;points=[];portConstraint=eastwest;strokeColor=inherit;" parent="rmH-b_gDkZlsQJ7KyMr7-79" vertex="1">
          <mxGeometry y="110" width="290" height="8" as="geometry" />
        </mxCell>
        <mxCell id="rmH-b_gDkZlsQJ7KyMr7-82" value="+&amp;nbsp;Compra(data): void" style="text;strokeColor=none;fillColor=none;align=left;verticalAlign=top;spacingLeft=4;spacingRight=4;overflow=hidden;rotatable=0;points=[[0,0.5],[1,0.5]];portConstraint=eastwest;whiteSpace=wrap;html=1;" parent="rmH-b_gDkZlsQJ7KyMr7-79" vertex="1">
          <mxGeometry y="118" width="290" height="26" as="geometry" />
        </mxCell>
        <mxCell id="rmH-b_gDkZlsQJ7KyMr7-83" value="StatusCompra" style="swimlane;fontStyle=1;align=center;verticalAlign=top;childLayout=stackLayout;horizontal=1;startSize=30;horizontalStack=0;resizeParent=1;resizeParentMax=0;resizeLast=0;collapsible=1;marginBottom=0;whiteSpace=wrap;html=1;" parent="1" vertex="1">
          <mxGeometry x="1800" y="1340" width="290" height="104" as="geometry" />
        </mxCell>
        <mxCell id="rmH-b_gDkZlsQJ7KyMr7-84" value="- id: int&lt;br style=&quot;border-color: var(--border-color);&quot;&gt;- status: String" style="text;strokeColor=none;fillColor=none;align=left;verticalAlign=top;spacingLeft=4;spacingRight=4;overflow=hidden;rotatable=0;points=[[0,0.5],[1,0.5]];portConstraint=eastwest;whiteSpace=wrap;html=1;" parent="rmH-b_gDkZlsQJ7KyMr7-83" vertex="1">
          <mxGeometry y="30" width="290" height="40" as="geometry" />
        </mxCell>
        <mxCell id="rmH-b_gDkZlsQJ7KyMr7-85" value="" style="line;strokeWidth=1;fillColor=none;align=left;verticalAlign=middle;spacingTop=-1;spacingLeft=3;spacingRight=3;rotatable=0;labelPosition=right;points=[];portConstraint=eastwest;strokeColor=inherit;" parent="rmH-b_gDkZlsQJ7KyMr7-83" vertex="1">
          <mxGeometry y="70" width="290" height="8" as="geometry" />
        </mxCell>
        <mxCell id="rmH-b_gDkZlsQJ7KyMr7-86" value="+&amp;nbsp;StatusCompra(data): void" style="text;strokeColor=none;fillColor=none;align=left;verticalAlign=top;spacingLeft=4;spacingRight=4;overflow=hidden;rotatable=0;points=[[0,0.5],[1,0.5]];portConstraint=eastwest;whiteSpace=wrap;html=1;" parent="rmH-b_gDkZlsQJ7KyMr7-83" vertex="1">
          <mxGeometry y="78" width="290" height="26" as="geometry" />
        </mxCell>
        <mxCell id="rmH-b_gDkZlsQJ7KyMr7-87" style="edgeStyle=orthogonalEdgeStyle;rounded=0;orthogonalLoop=1;jettySize=auto;html=1;exitX=0;exitY=0.5;exitDx=0;exitDy=0;entryX=1;entryY=0.5;entryDx=0;entryDy=0;" parent="1" source="rmH-b_gDkZlsQJ7KyMr7-84" target="rmH-b_gDkZlsQJ7KyMr7-71" edge="1">
          <mxGeometry relative="1" as="geometry" />
        </mxCell>
        <mxCell id="rmH-b_gDkZlsQJ7KyMr7-108" style="edgeStyle=orthogonalEdgeStyle;rounded=0;orthogonalLoop=1;jettySize=auto;html=1;entryX=1;entryY=0.5;entryDx=0;entryDy=0;" parent="1" source="rmH-b_gDkZlsQJ7KyMr7-88" target="rmH-b_gDkZlsQJ7KyMr7-105" edge="1">
          <mxGeometry relative="1" as="geometry" />
        </mxCell>
        <mxCell id="ruQxINrf4VnfBVx8ZJQu-12" style="edgeStyle=orthogonalEdgeStyle;rounded=0;orthogonalLoop=1;jettySize=auto;html=1;" edge="1" parent="1" source="rmH-b_gDkZlsQJ7KyMr7-88" target="ruQxINrf4VnfBVx8ZJQu-7">
          <mxGeometry relative="1" as="geometry" />
        </mxCell>
        <mxCell id="rmH-b_gDkZlsQJ7KyMr7-88" value="Departamento" style="swimlane;fontStyle=1;align=center;verticalAlign=top;childLayout=stackLayout;horizontal=1;startSize=30;horizontalStack=0;resizeParent=1;resizeParentMax=0;resizeLast=0;collapsible=1;marginBottom=0;whiteSpace=wrap;html=1;" parent="1" vertex="1">
          <mxGeometry x="1430" y="-60" width="290" height="134" as="geometry" />
        </mxCell>
        <mxCell id="rmH-b_gDkZlsQJ7KyMr7-89" value="- id: int&lt;br&gt;- titulo: String&lt;br&gt;- descricao: String&lt;br&gt;- gestor: Funcionario" style="text;strokeColor=none;fillColor=none;align=left;verticalAlign=top;spacingLeft=4;spacingRight=4;overflow=hidden;rotatable=0;points=[[0,0.5],[1,0.5]];portConstraint=eastwest;whiteSpace=wrap;html=1;" parent="rmH-b_gDkZlsQJ7KyMr7-88" vertex="1">
          <mxGeometry y="30" width="290" height="70" as="geometry" />
        </mxCell>
        <mxCell id="rmH-b_gDkZlsQJ7KyMr7-90" value="" style="line;strokeWidth=1;fillColor=none;align=left;verticalAlign=middle;spacingTop=-1;spacingLeft=3;spacingRight=3;rotatable=0;labelPosition=right;points=[];portConstraint=eastwest;strokeColor=inherit;" parent="rmH-b_gDkZlsQJ7KyMr7-88" vertex="1">
          <mxGeometry y="100" width="290" height="8" as="geometry" />
        </mxCell>
        <mxCell id="rmH-b_gDkZlsQJ7KyMr7-91" value="+&amp;nbsp;Departamento(data): void" style="text;strokeColor=none;fillColor=none;align=left;verticalAlign=top;spacingLeft=4;spacingRight=4;overflow=hidden;rotatable=0;points=[[0,0.5],[1,0.5]];portConstraint=eastwest;whiteSpace=wrap;html=1;" parent="rmH-b_gDkZlsQJ7KyMr7-88" vertex="1">
          <mxGeometry y="108" width="290" height="26" as="geometry" />
        </mxCell>
        <mxCell id="rmH-b_gDkZlsQJ7KyMr7-93" value="MetodoPagamento" style="swimlane;fontStyle=1;align=center;verticalAlign=top;childLayout=stackLayout;horizontal=1;startSize=30;horizontalStack=0;resizeParent=1;resizeParentMax=0;resizeLast=0;collapsible=1;marginBottom=0;whiteSpace=wrap;html=1;" parent="1" vertex="1">
          <mxGeometry x="1030" y="1590" width="290" height="104" as="geometry" />
        </mxCell>
        <mxCell id="rmH-b_gDkZlsQJ7KyMr7-94" value="- id: int&lt;br style=&quot;border-color: var(--border-color);&quot;&gt;- status: String" style="text;strokeColor=none;fillColor=none;align=left;verticalAlign=top;spacingLeft=4;spacingRight=4;overflow=hidden;rotatable=0;points=[[0,0.5],[1,0.5]];portConstraint=eastwest;whiteSpace=wrap;html=1;" parent="rmH-b_gDkZlsQJ7KyMr7-93" vertex="1">
          <mxGeometry y="30" width="290" height="40" as="geometry" />
        </mxCell>
        <mxCell id="rmH-b_gDkZlsQJ7KyMr7-95" value="" style="line;strokeWidth=1;fillColor=none;align=left;verticalAlign=middle;spacingTop=-1;spacingLeft=3;spacingRight=3;rotatable=0;labelPosition=right;points=[];portConstraint=eastwest;strokeColor=inherit;" parent="rmH-b_gDkZlsQJ7KyMr7-93" vertex="1">
          <mxGeometry y="70" width="290" height="8" as="geometry" />
        </mxCell>
        <mxCell id="rmH-b_gDkZlsQJ7KyMr7-96" value="+&amp;nbsp;MetodoPagamento(data): void" style="text;strokeColor=none;fillColor=none;align=left;verticalAlign=top;spacingLeft=4;spacingRight=4;overflow=hidden;rotatable=0;points=[[0,0.5],[1,0.5]];portConstraint=eastwest;whiteSpace=wrap;html=1;" parent="rmH-b_gDkZlsQJ7KyMr7-93" vertex="1">
          <mxGeometry y="78" width="290" height="26" as="geometry" />
        </mxCell>
        <mxCell id="rmH-b_gDkZlsQJ7KyMr7-98" style="edgeStyle=orthogonalEdgeStyle;rounded=0;orthogonalLoop=1;jettySize=auto;html=1;entryX=0.499;entryY=1.009;entryDx=0;entryDy=0;entryPerimeter=0;" parent="1" source="rmH-b_gDkZlsQJ7KyMr7-93" target="rmH-b_gDkZlsQJ7KyMr7-82" edge="1">
          <mxGeometry relative="1" as="geometry" />
        </mxCell>
        <mxCell id="rmH-b_gDkZlsQJ7KyMr7-100" style="edgeStyle=orthogonalEdgeStyle;rounded=0;orthogonalLoop=1;jettySize=auto;html=1;entryX=1;entryY=0.5;entryDx=0;entryDy=0;" parent="1" source="rmH-b_gDkZlsQJ7KyMr7-71" target="rmH-b_gDkZlsQJ7KyMr7-80" edge="1">
          <mxGeometry relative="1" as="geometry" />
        </mxCell>
        <mxCell id="rmH-b_gDkZlsQJ7KyMr7-103" style="edgeStyle=orthogonalEdgeStyle;rounded=0;orthogonalLoop=1;jettySize=auto;html=1;exitX=1;exitY=0.5;exitDx=0;exitDy=0;entryX=0;entryY=0.5;entryDx=0;entryDy=0;" parent="1" source="rmH-b_gDkZlsQJ7KyMr7-12" target="rmH-b_gDkZlsQJ7KyMr7-89" edge="1">
          <mxGeometry relative="1" as="geometry" />
        </mxCell>
        <mxCell id="rmH-b_gDkZlsQJ7KyMr7-104" value="Cargo" style="swimlane;fontStyle=1;align=center;verticalAlign=top;childLayout=stackLayout;horizontal=1;startSize=30;horizontalStack=0;resizeParent=1;resizeParentMax=0;resizeLast=0;collapsible=1;marginBottom=0;whiteSpace=wrap;html=1;" parent="1" vertex="1">
          <mxGeometry x="1050" y="-355" width="290" height="154" as="geometry" />
        </mxCell>
        <mxCell id="rmH-b_gDkZlsQJ7KyMr7-105" value="- id: int&lt;br style=&quot;border-color: var(--border-color);&quot;&gt;- titulo: String&lt;br&gt;- descricao: String&lt;br style=&quot;border-color: var(--border-color);&quot;&gt;- departamento: Departamento&lt;br&gt;- salario: float" style="text;strokeColor=none;fillColor=none;align=left;verticalAlign=top;spacingLeft=4;spacingRight=4;overflow=hidden;rotatable=0;points=[[0,0.5],[1,0.5]];portConstraint=eastwest;whiteSpace=wrap;html=1;" parent="rmH-b_gDkZlsQJ7KyMr7-104" vertex="1">
          <mxGeometry y="30" width="290" height="90" as="geometry" />
        </mxCell>
        <mxCell id="rmH-b_gDkZlsQJ7KyMr7-106" value="" style="line;strokeWidth=1;fillColor=none;align=left;verticalAlign=middle;spacingTop=-1;spacingLeft=3;spacingRight=3;rotatable=0;labelPosition=right;points=[];portConstraint=eastwest;strokeColor=inherit;" parent="rmH-b_gDkZlsQJ7KyMr7-104" vertex="1">
          <mxGeometry y="120" width="290" height="8" as="geometry" />
        </mxCell>
        <mxCell id="rmH-b_gDkZlsQJ7KyMr7-107" value="+&amp;nbsp;Cargo(data): void" style="text;strokeColor=none;fillColor=none;align=left;verticalAlign=top;spacingLeft=4;spacingRight=4;overflow=hidden;rotatable=0;points=[[0,0.5],[1,0.5]];portConstraint=eastwest;whiteSpace=wrap;html=1;" parent="rmH-b_gDkZlsQJ7KyMr7-104" vertex="1">
          <mxGeometry y="128" width="290" height="26" as="geometry" />
        </mxCell>
        <mxCell id="ruQxINrf4VnfBVx8ZJQu-1" style="edgeStyle=orthogonalEdgeStyle;rounded=0;orthogonalLoop=1;jettySize=auto;html=1;" edge="1" parent="1" source="rmH-b_gDkZlsQJ7KyMr7-110" target="rmH-b_gDkZlsQJ7KyMr7-11">
          <mxGeometry relative="1" as="geometry" />
        </mxCell>
        <mxCell id="rmH-b_gDkZlsQJ7KyMr7-110" value="Contrato" style="swimlane;fontStyle=1;align=center;verticalAlign=top;childLayout=stackLayout;horizontal=1;startSize=30;horizontalStack=0;resizeParent=1;resizeParentMax=0;resizeLast=0;collapsible=1;marginBottom=0;whiteSpace=wrap;html=1;" parent="1" vertex="1">
          <mxGeometry x="720" y="-360" width="180" height="164" as="geometry" />
        </mxCell>
        <mxCell id="rmH-b_gDkZlsQJ7KyMr7-111" value="- id: int&lt;br&gt;- cargo: Cargo&lt;br&gt;- dataAdmissao: Date&lt;br&gt;- dataDemissao: Date&lt;br&gt;- ativo: bool" style="text;strokeColor=none;fillColor=none;align=left;verticalAlign=top;spacingLeft=4;spacingRight=4;overflow=hidden;rotatable=0;points=[[0,0.5],[1,0.5]];portConstraint=eastwest;whiteSpace=wrap;html=1;" parent="rmH-b_gDkZlsQJ7KyMr7-110" vertex="1">
          <mxGeometry y="30" width="180" height="100" as="geometry" />
        </mxCell>
        <mxCell id="rmH-b_gDkZlsQJ7KyMr7-112" value="" style="line;strokeWidth=1;fillColor=none;align=left;verticalAlign=middle;spacingTop=-1;spacingLeft=3;spacingRight=3;rotatable=0;labelPosition=right;points=[];portConstraint=eastwest;strokeColor=inherit;" parent="rmH-b_gDkZlsQJ7KyMr7-110" vertex="1">
          <mxGeometry y="130" width="180" height="8" as="geometry" />
        </mxCell>
        <mxCell id="rmH-b_gDkZlsQJ7KyMr7-113" value="+&amp;nbsp;Contrato(data): void" style="text;strokeColor=none;fillColor=none;align=left;verticalAlign=top;spacingLeft=4;spacingRight=4;overflow=hidden;rotatable=0;points=[[0,0.5],[1,0.5]];portConstraint=eastwest;whiteSpace=wrap;html=1;" parent="rmH-b_gDkZlsQJ7KyMr7-110" vertex="1">
          <mxGeometry y="138" width="180" height="26" as="geometry" />
        </mxCell>
        <mxCell id="rmH-b_gDkZlsQJ7KyMr7-115" style="edgeStyle=orthogonalEdgeStyle;rounded=0;orthogonalLoop=1;jettySize=auto;html=1;exitX=0;exitY=0.5;exitDx=0;exitDy=0;entryX=1;entryY=0.5;entryDx=0;entryDy=0;" parent="1" source="rmH-b_gDkZlsQJ7KyMr7-105" target="rmH-b_gDkZlsQJ7KyMr7-111" edge="1">
          <mxGeometry relative="1" as="geometry" />
        </mxCell>
        <mxCell id="ruQxINrf4VnfBVx8ZJQu-16" style="edgeStyle=orthogonalEdgeStyle;rounded=0;orthogonalLoop=1;jettySize=auto;html=1;" edge="1" parent="1" source="ruQxINrf4VnfBVx8ZJQu-7" target="rmH-b_gDkZlsQJ7KyMr7-19">
          <mxGeometry relative="1" as="geometry" />
        </mxCell>
        <mxCell id="ruQxINrf4VnfBVx8ZJQu-7" value="Categoria" style="swimlane;fontStyle=1;align=center;verticalAlign=top;childLayout=stackLayout;horizontal=1;startSize=30;horizontalStack=0;resizeParent=1;resizeParentMax=0;resizeLast=0;collapsible=1;marginBottom=0;whiteSpace=wrap;html=1;" vertex="1" parent="1">
          <mxGeometry x="1430" y="200" width="290" height="124" as="geometry" />
        </mxCell>
        <mxCell id="ruQxINrf4VnfBVx8ZJQu-8" value="- id: int&lt;br&gt;- titulo: String&lt;br&gt;- departamentoResp:&amp;nbsp;Departamento" style="text;strokeColor=none;fillColor=none;align=left;verticalAlign=top;spacingLeft=4;spacingRight=4;overflow=hidden;rotatable=0;points=[[0,0.5],[1,0.5]];portConstraint=eastwest;whiteSpace=wrap;html=1;" vertex="1" parent="ruQxINrf4VnfBVx8ZJQu-7">
          <mxGeometry y="30" width="290" height="60" as="geometry" />
        </mxCell>
        <mxCell id="ruQxINrf4VnfBVx8ZJQu-9" value="" style="line;strokeWidth=1;fillColor=none;align=left;verticalAlign=middle;spacingTop=-1;spacingLeft=3;spacingRight=3;rotatable=0;labelPosition=right;points=[];portConstraint=eastwest;strokeColor=inherit;" vertex="1" parent="ruQxINrf4VnfBVx8ZJQu-7">
          <mxGeometry y="90" width="290" height="8" as="geometry" />
        </mxCell>
        <mxCell id="ruQxINrf4VnfBVx8ZJQu-10" value="+&amp;nbsp;Categoria(data): void" style="text;strokeColor=none;fillColor=none;align=left;verticalAlign=top;spacingLeft=4;spacingRight=4;overflow=hidden;rotatable=0;points=[[0,0.5],[1,0.5]];portConstraint=eastwest;whiteSpace=wrap;html=1;" vertex="1" parent="ruQxINrf4VnfBVx8ZJQu-7">
          <mxGeometry y="98" width="290" height="26" as="geometry" />
        </mxCell>
        <mxCell id="ruQxINrf4VnfBVx8ZJQu-19" value="Atendimento" style="swimlane;fontStyle=1;align=center;verticalAlign=top;childLayout=stackLayout;horizontal=1;startSize=30;horizontalStack=0;resizeParent=1;resizeParentMax=0;resizeLast=0;collapsible=1;marginBottom=0;whiteSpace=wrap;html=1;" vertex="1" parent="1">
          <mxGeometry x="880" y="200" width="290" height="144" as="geometry" />
        </mxCell>
        <mxCell id="ruQxINrf4VnfBVx8ZJQu-20" value="- id: int&lt;br&gt;- titulo: String&lt;br&gt;- desc: String&lt;br&gt;- departamento: Departamento&lt;br&gt;- funcionario: Funcionario" style="text;strokeColor=none;fillColor=none;align=left;verticalAlign=top;spacingLeft=4;spacingRight=4;overflow=hidden;rotatable=0;points=[[0,0.5],[1,0.5]];portConstraint=eastwest;whiteSpace=wrap;html=1;" vertex="1" parent="ruQxINrf4VnfBVx8ZJQu-19">
          <mxGeometry y="30" width="290" height="80" as="geometry" />
        </mxCell>
        <mxCell id="ruQxINrf4VnfBVx8ZJQu-21" value="" style="line;strokeWidth=1;fillColor=none;align=left;verticalAlign=middle;spacingTop=-1;spacingLeft=3;spacingRight=3;rotatable=0;labelPosition=right;points=[];portConstraint=eastwest;strokeColor=inherit;" vertex="1" parent="ruQxINrf4VnfBVx8ZJQu-19">
          <mxGeometry y="110" width="290" height="8" as="geometry" />
        </mxCell>
        <mxCell id="ruQxINrf4VnfBVx8ZJQu-22" value="+&amp;nbsp;Atendimento(data): void" style="text;strokeColor=none;fillColor=none;align=left;verticalAlign=top;spacingLeft=4;spacingRight=4;overflow=hidden;rotatable=0;points=[[0,0.5],[1,0.5]];portConstraint=eastwest;whiteSpace=wrap;html=1;" vertex="1" parent="ruQxINrf4VnfBVx8ZJQu-19">
          <mxGeometry y="118" width="290" height="26" as="geometry" />
        </mxCell>
        <mxCell id="ruQxINrf4VnfBVx8ZJQu-27" value="Agenda" style="swimlane;fontStyle=1;align=center;verticalAlign=top;childLayout=stackLayout;horizontal=1;startSize=30;horizontalStack=0;resizeParent=1;resizeParentMax=0;resizeLast=0;collapsible=1;marginBottom=0;whiteSpace=wrap;html=1;" vertex="1" parent="1">
          <mxGeometry x="1050" y="510" width="290" height="174" as="geometry" />
        </mxCell>
        <mxCell id="ruQxINrf4VnfBVx8ZJQu-28" value="- id: int&lt;br&gt;- horariosAgendados: List&amp;lt;Atendimento&amp;gt;" style="text;strokeColor=none;fillColor=none;align=left;verticalAlign=top;spacingLeft=4;spacingRight=4;overflow=hidden;rotatable=0;points=[[0,0.5],[1,0.5]];portConstraint=eastwest;whiteSpace=wrap;html=1;" vertex="1" parent="ruQxINrf4VnfBVx8ZJQu-27">
          <mxGeometry y="30" width="290" height="110" as="geometry" />
        </mxCell>
        <mxCell id="ruQxINrf4VnfBVx8ZJQu-29" value="" style="line;strokeWidth=1;fillColor=none;align=left;verticalAlign=middle;spacingTop=-1;spacingLeft=3;spacingRight=3;rotatable=0;labelPosition=right;points=[];portConstraint=eastwest;strokeColor=inherit;" vertex="1" parent="ruQxINrf4VnfBVx8ZJQu-27">
          <mxGeometry y="140" width="290" height="8" as="geometry" />
        </mxCell>
        <mxCell id="ruQxINrf4VnfBVx8ZJQu-30" value="+&amp;nbsp;Consulta(data): void" style="text;strokeColor=none;fillColor=none;align=left;verticalAlign=top;spacingLeft=4;spacingRight=4;overflow=hidden;rotatable=0;points=[[0,0.5],[1,0.5]];portConstraint=eastwest;whiteSpace=wrap;html=1;" vertex="1" parent="ruQxINrf4VnfBVx8ZJQu-27">
          <mxGeometry y="148" width="290" height="26" as="geometry" />
        </mxCell>
        <mxCell id="ruQxINrf4VnfBVx8ZJQu-31" value="AgendaAtendimento" style="swimlane;fontStyle=1;align=center;verticalAlign=top;childLayout=stackLayout;horizontal=1;startSize=30;horizontalStack=0;resizeParent=1;resizeParentMax=0;resizeLast=0;collapsible=1;marginBottom=0;whiteSpace=wrap;html=1;" vertex="1" parent="1">
          <mxGeometry x="665" y="450" width="290" height="174" as="geometry" />
        </mxCell>
        <mxCell id="ruQxINrf4VnfBVx8ZJQu-32" value="- id: int&lt;br&gt;- responsavel: Pessoa(T)&lt;br&gt;- dataAgendamento: Datetime" style="text;strokeColor=none;fillColor=none;align=left;verticalAlign=top;spacingLeft=4;spacingRight=4;overflow=hidden;rotatable=0;points=[[0,0.5],[1,0.5]];portConstraint=eastwest;whiteSpace=wrap;html=1;" vertex="1" parent="ruQxINrf4VnfBVx8ZJQu-31">
          <mxGeometry y="30" width="290" height="110" as="geometry" />
        </mxCell>
        <mxCell id="ruQxINrf4VnfBVx8ZJQu-33" value="" style="line;strokeWidth=1;fillColor=none;align=left;verticalAlign=middle;spacingTop=-1;spacingLeft=3;spacingRight=3;rotatable=0;labelPosition=right;points=[];portConstraint=eastwest;strokeColor=inherit;" vertex="1" parent="ruQxINrf4VnfBVx8ZJQu-31">
          <mxGeometry y="140" width="290" height="8" as="geometry" />
        </mxCell>
        <mxCell id="ruQxINrf4VnfBVx8ZJQu-34" value="+&amp;nbsp;Atendimento(data): void" style="text;strokeColor=none;fillColor=none;align=left;verticalAlign=top;spacingLeft=4;spacingRight=4;overflow=hidden;rotatable=0;points=[[0,0.5],[1,0.5]];portConstraint=eastwest;whiteSpace=wrap;html=1;" vertex="1" parent="ruQxINrf4VnfBVx8ZJQu-31">
          <mxGeometry y="148" width="290" height="26" as="geometry" />
        </mxCell>
        <mxCell id="ruQxINrf4VnfBVx8ZJQu-36" style="edgeStyle=orthogonalEdgeStyle;rounded=0;orthogonalLoop=1;jettySize=auto;html=1;entryX=0.75;entryY=0;entryDx=0;entryDy=0;" edge="1" parent="1" source="rmH-b_gDkZlsQJ7KyMr7-91" target="ruQxINrf4VnfBVx8ZJQu-19">
          <mxGeometry relative="1" as="geometry">
            <Array as="points">
              <mxPoint x="1097" y="60" />
            </Array>
          </mxGeometry>
        </mxCell>
        <mxCell id="ruQxINrf4VnfBVx8ZJQu-37" style="edgeStyle=orthogonalEdgeStyle;rounded=0;orthogonalLoop=1;jettySize=auto;html=1;entryX=0.25;entryY=0;entryDx=0;entryDy=0;" edge="1" parent="1" source="rmH-b_gDkZlsQJ7KyMr7-14" target="ruQxINrf4VnfBVx8ZJQu-19">
          <mxGeometry relative="1" as="geometry" />
        </mxCell>
      </root>
    </mxGraphModel>
  </diagram>
</mxfile>
